<svg width="763" height="41" xmlns="http://www.w3.org/2000/svg"><g fill="none" fill-rule="evenodd"><path d="M75.057 25.931c-1.135 0-2.017-.397-2.648-1.191-.631-.794-.947-1.964-.947-3.508 0-1.545.316-2.732.947-3.562.63-.829 1.513-1.244 2.648-1.244.75 0 1.38.176 1.887.527.507.351.901.847 1.183 1.488l-.87.54a2.546 2.546 0 00-.819-1.14c-.366-.285-.827-.427-1.381-.427a2.3 2.3 0 00-1.03.224c-.303.149-.559.362-.768.638a3.014 3.014 0 00-.48.987c-.11.382-.166.81-.166 1.284v1.37c0 .947.214 1.689.64 2.224.426.535 1.028.803 1.804.803.571 0 1.049-.151 1.432-.454.384-.303.666-.704.845-1.205l.857.553c-.282.65-.687 1.16-1.215 1.534-.53.373-1.169.56-1.92.56zm8.763-1.263h-.052a3.299 3.299 0 01-.249.467c-.098.154-.22.29-.365.408-.145.119-.32.213-.524.283-.205.07-.444.105-.716.105-.683 0-1.224-.226-1.625-.678-.401-.452-.601-1.09-.601-1.915V18.98h1.023v4.174c0 1.22.503 1.83 1.51 1.83.204 0 .402-.027.594-.08.192-.052.363-.131.512-.236.15-.106.269-.24.358-.402.09-.162.135-.358.135-.586v-4.7h1.023v6.793H83.82v-1.105zm3.198 1.105V18.98h1.023v1.251h.064c.12-.325.333-.614.64-.869.307-.254.729-.382 1.266-.382h.397v1.054h-.602c-.554 0-.987.107-1.298.322-.311.215-.467.485-.467.81v4.607h-1.023zm4.695 0V18.98h1.023v1.251h.064c.12-.325.333-.614.64-.869.307-.254.729-.382 1.266-.382h.397v1.054H94.5c-.554 0-.987.107-1.298.322-.311.215-.467.485-.467.81v4.607h-1.023zm7.112.158a2.89 2.89 0 01-1.221-.25 2.642 2.642 0 01-.934-.717 3.32 3.32 0 01-.602-1.12 4.752 4.752 0 01-.21-1.467c0-.535.07-1.023.21-1.461.141-.44.342-.814.602-1.126.26-.312.571-.55.934-.717a2.89 2.89 0 011.221-.25c.444 0 .84.083 1.19.25.35.166.648.397.895.69.248.295.437.644.57 1.047.132.404.198.847.198 1.33v.5h-4.746v.316c0 .29.045.56.134.81.09.25.218.467.384.651.166.185.371.33.614.435.243.105.518.158.825.158.418 0 .783-.101 1.094-.303.311-.202.552-.491.723-.869l.729.54c-.213.465-.546.84-.998 1.126-.452.285-.99.427-1.612.427zm0-6.227c-.281 0-.537.05-.767.152-.23.1-.429.243-.595.428a2.02 2.02 0 00-.39.651c-.094.25-.141.525-.141.823v.092h3.646v-.145c0-.605-.16-1.09-.48-1.454-.32-.364-.744-.547-1.273-.547zm4.542 6.07V18.98h1.023v1.106h.051c.162-.386.39-.693.685-.921.294-.229.688-.343 1.183-.343.682 0 1.222.226 1.618.678.397.452.595 1.09.595 1.916v4.357h-1.023V21.6c0-1.22-.5-1.83-1.497-1.83-.205 0-.403.027-.595.08a1.706 1.706 0 00-.518.236 1.16 1.16 0 00-.365.402c-.09.162-.134.353-.134.572v4.713h-1.023zm8.724 0c-.358 0-.629-.104-.812-.31-.184-.206-.275-.476-.275-.81v-4.752h-1.088v-.922h.614c.222 0 .374-.046.455-.138.08-.092.121-.252.121-.48v-1.264h.921v1.882h1.446v.922h-1.446v4.95h1.343v.921h-1.279zm6.153 0v-9.19h3.557c.801 0 1.417.235 1.848.705.43.47.646 1.112.646 1.928 0 .817-.215 1.46-.646 1.929-.43.47-1.047.704-1.848.704h-2.482v3.923h-1.075zm1.075-4.898h2.482c.426 0 .757-.114.991-.342.235-.228.352-.553.352-.974v-.685c0-.421-.117-.746-.352-.974-.234-.228-.565-.342-.991-.342h-2.482v3.317zm8.814 5.055c-.444 0-.849-.083-1.215-.25a2.627 2.627 0 01-.94-.717 3.409 3.409 0 01-.608-1.12 4.623 4.623 0 01-.218-1.467c0-.535.073-1.023.218-1.461.145-.44.347-.814.607-1.126.26-.312.574-.55.94-.717.367-.167.772-.25 1.216-.25.443 0 .846.083 1.209.25.362.166.676.405.94.717.264.312.47.687.614 1.126.145.438.218.926.218 1.46 0 .545-.073 1.034-.218 1.469-.145.434-.35.807-.614 1.119-.264.311-.578.55-.94.717-.363.167-.766.25-1.21.25zm0-.934c.554 0 1.006-.176 1.356-.527.35-.35.524-.886.524-1.606v-.974c0-.72-.174-1.255-.524-1.606-.35-.351-.802-.527-1.356-.527s-1.006.176-1.356.527c-.35.35-.525.886-.525 1.606v.974c0 .72.175 1.255.525 1.606.35.351.802.527 1.356.527zm5.757.776c-.359 0-.63-.103-.813-.309-.183-.206-.275-.467-.275-.783v-8.65h1.024v8.82h.972v.922h-.908zm2.903-8.386c-.221 0-.381-.054-.48-.164a.618.618 0 01-.146-.428v-.171c0-.176.049-.318.147-.428.098-.11.258-.165.48-.165.221 0 .381.055.48.165.097.11.146.252.146.428v.171a.618.618 0 01-.147.428c-.098.11-.258.164-.48.164zm-.511 1.593h1.023v6.793h-1.023V18.98zm5.654 6.951c-.46 0-.874-.083-1.24-.25a2.542 2.542 0 01-.928-.71 3.2 3.2 0 01-.576-1.12 5.104 5.104 0 01-.198-1.474c0-.544.066-1.036.198-1.475a3.2 3.2 0 01.576-1.119c.251-.307.56-.544.927-.71.367-.167.78-.25 1.241-.25.657 0 1.183.146 1.58.44.397.294.693.678.889 1.152l-.857.448a1.595 1.595 0 00-.589-.816c-.272-.193-.614-.29-1.023-.29-.307 0-.576.05-.806.151-.23.101-.422.242-.576.422-.153.18-.268.395-.345.645-.077.25-.115.524-.115.823v1.158c0 .597.156 1.086.467 1.468.311.382.77.573 1.375.573.827 0 1.424-.395 1.791-1.185l.742.513a2.68 2.68 0 01-.953 1.172c-.422.29-.949.434-1.58.434zm4.49-8.544c-.221 0-.381-.054-.48-.164a.618.618 0 01-.147-.428v-.171c0-.176.05-.318.148-.428.098-.11.258-.165.48-.165.221 0 .38.055.479.165.098.11.147.252.147.428v.171a.618.618 0 01-.147.428c-.098.11-.258.164-.48.164zm-.511 1.593h1.023v6.793h-1.023V18.98zm5.68 6.951a2.89 2.89 0 01-1.222-.25 2.642 2.642 0 01-.934-.717 3.32 3.32 0 01-.601-1.12 4.752 4.752 0 01-.211-1.467c0-.535.07-1.023.21-1.461.141-.44.342-.814.602-1.126.26-.312.571-.55.934-.717a2.89 2.89 0 011.221-.25c.444 0 .84.083 1.19.25.35.166.648.397.896.69.247.295.437.644.569 1.047.132.404.198.847.198 1.33v.5h-4.746v.316c0 .29.045.56.134.81.09.25.218.467.384.651.167.185.371.33.614.435.243.105.518.158.825.158.418 0 .783-.101 1.094-.303.311-.202.552-.491.723-.869l.73.54c-.214.465-.547.84-.999 1.126-.452.285-.989.427-1.612.427zm0-6.227c-.282 0-.538.05-.768.152-.23.1-.429.243-.595.428a2.02 2.02 0 00-.39.651c-.094.25-.14.525-.14.823v.092h3.645v-.145c0-.605-.16-1.09-.48-1.454-.32-.364-.744-.547-1.273-.547zm6.524 6.227c-.614 0-1.128-.12-1.542-.362a3.54 3.54 0 01-1.068-.967l.73-.606c.255.334.54.59.856.77.316.18.682.27 1.1.27.435 0 .774-.096 1.017-.29.243-.192.365-.465.365-.816a.99.99 0 00-.25-.678c-.166-.188-.466-.318-.901-.388l-.525-.079a4.273 4.273 0 01-.844-.204 2.326 2.326 0 01-.672-.369 1.578 1.578 0 01-.448-.572c-.106-.229-.16-.5-.16-.817 0-.333.06-.625.18-.875s.283-.459.492-.625c.21-.167.459-.292.749-.376.29-.083.6-.125.933-.125.538 0 .988.097 1.35.29.362.193.68.46.953.803l-.678.632a2.054 2.054 0 00-.64-.573c-.281-.17-.635-.256-1.061-.256-.427 0-.749.094-.966.283-.218.188-.326.445-.326.77 0 .333.108.575.326.724.217.15.53.259.94.329l.512.079c.733.114 1.253.331 1.56.652.307.32.461.74.461 1.257 0 .658-.217 1.176-.652 1.553-.435.378-1.032.566-1.791.566z" fill="#4E40B2" fill-rule="nonzero"/><path d="M239.536 26.267h-6.145v-1.191l3.059-2.909a6.947 6.947 0 001.1-1.322c.295-.467.443-.935.443-1.406v-.166c0-.536-.144-.97-.43-1.302-.286-.333-.72-.499-1.301-.499-.286 0-.537.042-.752.125a1.69 1.69 0 00-.556.346c-.157.148-.287.32-.39.52a3.237 3.237 0 00-.248.643l-1.006-.401c.09-.286.212-.566.369-.838a2.757 2.757 0 011.45-1.24c.334-.129.73-.194 1.186-.194.457 0 .864.07 1.221.208.358.139.658.332.9.582.24.25.426.545.556.886.13.342.195.72.195 1.136 0 .379-.052.73-.155 1.053a4.16 4.16 0 01-.422.92c-.18.292-.396.575-.65.852-.256.277-.53.554-.826.831l-2.523 2.341h4.925v1.025zm2.723.166c-.286 0-.494-.074-.624-.221-.13-.148-.194-.342-.194-.582v-.18c0-.24.065-.434.194-.582.13-.148.338-.221.624-.221.287 0 .494.073.624.221.13.148.195.342.195.582v.18c0 .24-.065.434-.195.582-.13.147-.337.221-.624.221zm5.85 0c-1.118 0-1.934-.438-2.448-1.315-.515-.878-.772-2.106-.772-3.685 0-1.579.257-2.807.772-3.684.514-.877 1.33-1.316 2.448-1.316 1.118 0 1.934.439 2.449 1.316.514.877.771 2.105.771 3.684 0 1.58-.257 2.807-.771 3.685-.515.877-1.33 1.315-2.449 1.315zm0-1.01c.367 0 .68-.08.94-.236.259-.157.469-.379.63-.665.161-.286.28-.623.356-1.011.076-.388.114-.817.114-1.288v-1.58c0-.47-.038-.9-.114-1.287a3.377 3.377 0 00-.356-1.011 1.775 1.775 0 00-.63-.665c-.26-.157-.573-.236-.94-.236s-.68.079-.939.236c-.26.157-.47.378-.63.665-.162.286-.28.623-.356 1.01a6.713 6.713 0 00-.114 1.289v1.579c0 .47.038.9.114 1.288.076.388.194.725.355 1.011.161.286.372.508.631.665.26.157.572.235.94.235zm6.695-3.92c-.653 0-1.162-.22-1.53-.658-.366-.439-.55-1.05-.55-1.835 0-.785.184-1.397.55-1.836.368-.438.877-.658 1.53-.658s1.163.22 1.53.658c.367.439.55 1.05.55 1.836 0 .784-.183 1.396-.55 1.835-.367.438-.877.658-1.53.658zm0-.72c.394 0 .687-.125.88-.375.191-.249.288-.572.288-.97v-.858c0-.397-.097-.72-.289-.97-.192-.249-.485-.373-.879-.373-.393 0-.686.124-.878.374-.193.249-.289.572-.289.97v.858c0 .397.096.72.289.97.192.249.485.373.878.373zm7.219 5.65c-1.19 0-2.116-.417-2.778-1.253-.661-.836-.992-2.066-.992-3.691s.33-2.874.992-3.747c.662-.872 1.588-1.309 2.778-1.309.787 0 1.447.185 1.979.554.532.37.946.891 1.24 1.565l-.911.568a2.678 2.678 0 00-.86-1.198c-.384-.3-.867-.45-1.448-.45-.403 0-.763.079-1.08.236a2.24 2.24 0 00-.805.671c-.22.291-.387.637-.503 1.04a4.852 4.852 0 00-.175 1.35v1.44c0 .997.224 1.777.671 2.34.447.564 1.078.846 1.892.846.6 0 1.1-.16 1.503-.478.402-.319.697-.741.885-1.268l.899.582c-.295.683-.72 1.221-1.275 1.614-.554.392-1.225.588-2.012.588z" fill="#E66B46" fill-rule="nonzero"/><path d="M344.663 26.647h-6.203V25.53l3.088-2.73c.442-.39.813-.804 1.11-1.242.299-.438.448-.878.448-1.32v-.156c0-.503-.145-.91-.434-1.222-.289-.312-.727-.468-1.314-.468-.288 0-.541.039-.758.117a1.73 1.73 0 00-.955.812 2.914 2.914 0 00-.25.605l-1.016-.377c.09-.269.214-.531.372-.787.158-.255.357-.483.596-.682.24-.2.528-.36.867-.481.339-.122.738-.182 1.199-.182.46 0 .87.065 1.232.195.361.13.664.312.907.546.244.234.432.511.563.832.13.32.196.676.196 1.066 0 .355-.052.685-.156.988a3.783 3.783 0 01-.426.865c-.181.273-.4.54-.657.8-.258.26-.535.52-.833.78l-2.546 2.197h4.97v.962zm2.75.156c-.29 0-.5-.07-.63-.208a.763.763 0 01-.197-.546v-.169c0-.225.066-.407.197-.546.13-.139.34-.208.63-.208.288 0 .498.07.63.208.13.139.196.32.196.546v.17a.763.763 0 01-.197.545c-.13.139-.34.208-.63.208zm5.904 0c-1.128 0-1.952-.411-2.471-1.235-.52-.823-.78-1.976-.78-3.459 0-1.482.26-2.635.78-3.458.519-.824 1.343-1.235 2.471-1.235 1.129 0 1.953.411 2.472 1.235.52.823.779 1.976.779 3.458 0 1.483-.26 2.636-.779 3.459-.52.824-1.343 1.235-2.472 1.235zm0-.949c.37 0 .687-.074.948-.221.262-.147.474-.355.637-.624.162-.269.282-.585.359-.95.077-.363.115-.766.115-1.208v-1.483c0-.442-.038-.845-.115-1.209a3.028 3.028 0 00-.36-.95 1.725 1.725 0 00-.636-.623c-.261-.148-.577-.221-.948-.221-.37 0-.686.073-.948.22a1.725 1.725 0 00-.636.625 3.028 3.028 0 00-.36.949 5.874 5.874 0 00-.114 1.21v1.482c0 .442.038.845.115 1.209.077.364.196.68.359.949.162.269.374.477.636.624.262.147.578.221.948.221zm6.759-3.68c-.66 0-1.174-.205-1.544-.617-.37-.412-.556-.986-.556-1.723 0-.737.185-1.311.556-1.723.37-.412.884-.617 1.544-.617.659 0 1.173.205 1.543.617.37.412.556.986.556 1.723 0 .737-.185 1.311-.556 1.723-.37.412-.884.617-1.543.617zm0-.676c.397 0 .692-.117.887-.35.194-.235.29-.538.29-.91v-.807c0-.373-.096-.676-.29-.91-.195-.234-.49-.351-.887-.351-.398 0-.693.117-.888.35-.194.235-.29.538-.29.91v.807c0 .373.096.676.29.91.195.234.49.351.888.351zm7.286 5.305c-1.201 0-2.135-.392-2.804-1.176-.668-.785-1.002-1.94-1.002-3.466 0-1.525.334-2.698 1.002-3.517.669-.819 1.603-1.228 2.804-1.228.794 0 1.46.173 1.998.52.537.346.954.836 1.252 1.469l-.92.533a2.53 2.53 0 00-.867-1.125c-.389-.281-.876-.422-1.463-.422-.406 0-.77.073-1.09.22-.32.148-.592.358-.813.631a2.9 2.9 0 00-.508.976c-.117.377-.176.8-.176 1.267v1.353c0 .936.226 1.668.677 2.197.452.529 1.088.793 1.91.793.605 0 1.11-.15 1.517-.449.406-.299.704-.695.894-1.19l.907.547a3.568 3.568 0 01-1.287 1.515c-.56.368-1.237.552-2.031.552zm8.275-.156v-9.075h1.138v8.113h4.022v.962h-5.16zm7.219-8.282c-.235 0-.404-.054-.508-.163a.585.585 0 01-.156-.422v-.17c0-.173.052-.314.156-.422.104-.108.273-.163.508-.163.234 0 .404.055.507.163.104.108.156.25.156.423v.169a.585.585 0 01-.156.422c-.103.109-.273.163-.507.163zm-.542 1.573h1.083v6.71h-1.083v-6.71zm3.386 6.71v-6.71h1.083v1.092h.054c.082-.173.174-.336.278-.487a1.695 1.695 0 01.9-.664c.2-.065.434-.097.705-.097.46 0 .885.106 1.273.319.388.212.677.56.867 1.046h.027c.126-.364.363-.682.71-.955.349-.274.82-.41 1.416-.41.714 0 1.271.223 1.673.67.402.446.603 1.077.603 1.891v4.304h-1.084v-4.122c0-.598-.122-1.048-.366-1.352-.243-.303-.632-.455-1.164-.455-.217 0-.422.026-.617.078a1.71 1.71 0 00-.521.234 1.162 1.162 0 00-.366.397c-.09.16-.135.349-.135.565v4.655h-1.084v-4.122c0-.598-.121-1.048-.365-1.352-.244-.303-.623-.455-1.138-.455a2.45 2.45 0 00-.623.078c-.199.052-.375.13-.528.234a1.228 1.228 0 00-.373.397 1.09 1.09 0 00-.142.565v4.655H385.7zm12.365-8.283c-.235 0-.404-.054-.508-.163a.585.585 0 01-.156-.422v-.17c0-.173.052-.314.156-.422.104-.108.273-.163.508-.163s.404.055.508.163c.104.108.156.25.156.423v.169a.585.585 0 01-.156.422c-.104.109-.273.163-.508.163zm-.542 1.573h1.084v6.71h-1.084v-6.71zm4.93 6.71c-.38 0-.666-.103-.86-.306-.194-.204-.291-.47-.291-.8v-4.694h-1.151v-.91h.65c.234 0 .395-.046.48-.137.086-.09.13-.249.13-.474v-1.248h.974v1.859h1.53v.91h-1.53v4.89h1.422v.91h-1.354zm5.783.155c-.478 0-.91-.082-1.293-.247a2.783 2.783 0 01-.989-.708 3.218 3.218 0 01-.637-1.106 4.403 4.403 0 01-.223-1.45c0-.528.074-1.01.223-1.443.15-.433.362-.804.637-1.111.275-.308.605-.544.989-.709a3.249 3.249 0 011.293-.247c.47 0 .89.082 1.26.247.37.165.686.392.948.683.261.29.462.635.602 1.033.14.4.21.837.21 1.314v.494h-5.024v.312c0 .286.047.552.142.8.095.246.23.46.406.643.176.182.393.325.65.43.258.103.549.155.874.155.442 0 .828-.1 1.158-.299.33-.2.584-.485.765-.858l.772.533a2.62 2.62 0 01-1.056 1.112c-.479.281-1.048.422-1.707.422zm0-6.15c-.298 0-.569.05-.813.15-.243.1-.453.24-.63.422a1.974 1.974 0 00-.412.644 2.16 2.16 0 00-.15.813v.09h3.86v-.143c0-.598-.169-1.077-.507-1.436-.339-.36-.788-.54-1.348-.54zm9.277 4.902h-.054c-.424.832-1.106 1.248-2.045 1.248-.433 0-.826-.082-1.178-.247a2.542 2.542 0 01-.9-.702 3.17 3.17 0 01-.57-1.105 5.028 5.028 0 01-.196-1.456c0-.538.065-1.023.196-1.457.131-.433.32-.801.57-1.105.247-.303.548-.537.9-.702a2.747 2.747 0 011.178-.247c.488 0 .905.102 1.253.306.347.203.612.517.792.942h.054v-4.005h1.084v9.622h-1.084v-1.092zm-1.8.312c.243 0 .475-.03.697-.09.22-.062.413-.15.575-.267a1.32 1.32 0 00.386-.43c.095-.169.142-.361.142-.578v-2.497a.993.993 0 00-.142-.513 1.303 1.303 0 00-.386-.41 1.984 1.984 0 00-.575-.266 2.461 2.461 0 00-.698-.098c-.614 0-1.097.184-1.45.553-.351.368-.527.851-.527 1.45v1.144c0 .598.176 1.081.528 1.45.352.368.835.552 1.45.552zm11.823-8.451c.794 0 1.46.173 1.997.52.537.346.955.836 1.253 1.469l-.921.533a2.53 2.53 0 00-.867-1.125c-.388-.281-.876-.422-1.462-.422-.407 0-.77.073-1.09.22-.321.148-.592.358-.813.631a2.9 2.9 0 00-.508.976c-.118.377-.176.8-.176 1.267v1.353c0 .936.225 1.668.677 2.197.451.529 1.088.793 1.91.793.604 0 1.11-.15 1.516-.449.407-.299.705-.695.894-1.19l.908.547a3.568 3.568 0 01-1.287 1.515c-.56.368-1.237.552-2.031.552-1.201 0-2.136-.392-2.804-1.176-.668-.785-1.002-1.94-1.002-3.466 0-1.525.334-2.698 1.002-3.517.668-.819 1.603-1.228 2.804-1.228zm8.247.156c.587 0 1.12.095 1.599.286.478.19.887.474 1.225.851.339.377.598.85.779 1.418.18.567.27 1.228.27 1.982 0 .755-.09 1.415-.27 1.983-.18.568-.44 1.04-.779 1.418a3.232 3.232 0 01-1.225.851 4.282 4.282 0 01-1.599.286h-3.169v-9.075h3.17zm9.684 0c.83 0 1.479.22 1.944.663.465.442.697 1.079.697 1.911 0 .667-.16 1.216-.48 1.645-.321.429-.793.713-1.416.851l2.167 4.005h-1.287l-2.045-3.9h-2.207v3.9h-1.138v-9.075h3.765zm-9.684.962h-2.031v7.151h2.031c.389 0 .745-.063 1.07-.188.325-.126.605-.31.84-.553.235-.243.418-.54.549-.89.13-.352.196-.753.196-1.203v-1.483c0-.45-.065-.851-.196-1.202a2.537 2.537 0 00-.549-.891 2.313 2.313 0 00-.84-.553 2.943 2.943 0 00-1.07-.188zm9.684 0h-2.627v3.276h2.627c.451 0 .801-.112 1.05-.338.248-.225.372-.546.372-.962v-.676c0-.416-.124-.737-.372-.962-.249-.226-.599-.338-1.05-.338z" fill="#C88673" fill-rule="nonzero"/><path d="M521.509 25.762v-1.017h2.681v-7.728h-.096l-2.42 2.255-.674-.728 2.544-2.379h1.801v8.58h2.475v1.017h-6.311zm8.91.165c-.294 0-.507-.073-.64-.22-.133-.146-.199-.339-.199-.577v-.179c0-.238.066-.43.2-.577.132-.147.345-.22.639-.22.293 0 .506.073.64.22.132.146.198.339.198.577v.179c0 .238-.066.43-.199.578-.133.146-.346.22-.64.22zm8.717-8.744h-4.207l-.275 3.657h.096c.23-.32.488-.577.777-.77.289-.193.685-.289 1.19-.289.412 0 .792.069 1.14.207.349.137.651.332.908.584.257.252.456.561.598.928.142.367.213.784.213 1.251 0 .468-.073.896-.22 1.286a2.79 2.79 0 01-.64 1.004c-.279.28-.618.497-1.017.653-.398.156-.85.233-1.354.233-.403 0-.759-.045-1.066-.137a3.112 3.112 0 01-.818-.371 3.35 3.35 0 01-.625-.523 5.528 5.528 0 01-.488-.605l.866-.66c.119.193.245.367.378.523.133.156.28.288.44.399.16.11.346.194.557.254.21.06.463.09.756.09.66 0 1.16-.175 1.499-.523.339-.349.509-.839.509-1.471v-.138c0-.633-.17-1.123-.51-1.471-.338-.349-.838-.523-1.498-.523-.44 0-.786.08-1.038.24-.252.161-.48.351-.68.572l-.977-.138.344-5.28h5.142v1.018zm4.139 3.85c-.67 0-1.192-.218-1.568-.654-.375-.435-.563-1.042-.563-1.821 0-.78.188-1.387.563-1.822.376-.436.899-.653 1.568-.653.67 0 1.192.217 1.567.653.376.435.564 1.042.564 1.822 0 .779-.188 1.386-.564 1.821-.375.436-.898.654-1.567.654zm0-.715c.403 0 .704-.124.9-.372.198-.247.296-.568.296-.962v-.853c0-.394-.098-.715-.295-.962-.197-.248-.498-.371-.901-.371s-.704.123-.9.37c-.198.248-.296.57-.296.963v.853c0 .394.098.715.295.962.197.248.498.372.901.372zm7.397 5.61c-1.219 0-2.167-.415-2.846-1.245-.678-.83-1.017-2.05-1.017-3.664 0-1.614.339-2.853 1.017-3.72.679-.866 1.627-1.299 2.846-1.299.807 0 1.483.183 2.029.55.545.367.969.885 1.271 1.554l-.935.564a2.664 2.664 0 00-.88-1.19c-.394-.298-.889-.447-1.485-.447-.412 0-.781.078-1.106.234a2.28 2.28 0 00-.825.667 3.112 3.112 0 00-.516 1.031c-.12.399-.179.846-.179 1.34v1.43c0 .99.23 1.765.688 2.325.458.559 1.104.838 1.938.838.615 0 1.128-.158 1.54-.474.413-.316.715-.736.908-1.258l.921.577c-.302.679-.738 1.213-1.306 1.602-.568.39-1.256.585-2.063.585z" fill="#FFAC00" fill-rule="nonzero"/><path d="M628.509 26.175v-1.018h2.681V17.43h-.096l-2.42 2.255-.674-.729 2.544-2.379h1.801v8.58h2.475v1.018h-6.311zm8.91.165c-.294 0-.507-.073-.64-.22-.133-.147-.199-.34-.199-.578v-.178c0-.239.066-.431.2-.578.132-.146.345-.22.639-.22.293 0 .506.074.64.22.132.147.198.34.198.578v.178c0 .239-.066.431-.199.578-.133.147-.346.22-.64.22zm8.717-8.745h-4.207l-.275 3.658h.096c.23-.321.488-.578.777-.77.289-.193.685-.29 1.19-.29.412 0 .792.07 1.14.207.349.138.651.332.908.584.257.252.456.562.598.928.142.367.213.784.213 1.252 0 .467-.073.896-.22 1.285a2.79 2.79 0 01-.64 1.004c-.279.28-.618.497-1.017.653-.398.156-.85.234-1.354.234-.403 0-.759-.046-1.066-.137a3.112 3.112 0 01-.818-.372 3.35 3.35 0 01-.625-.522 5.528 5.528 0 01-.488-.605l.866-.66c.119.192.245.366.378.522.133.156.28.289.44.399.16.11.346.195.557.254.21.06.463.09.756.09.66 0 1.16-.174 1.499-.523.339-.348.509-.838.509-1.471v-.138c0-.632-.17-1.122-.51-1.47-.338-.35-.838-.523-1.498-.523-.44 0-.786.08-1.038.24-.252.16-.48.351-.68.571l-.977-.138.344-5.28h5.142v1.018zm4.139 3.85c-.67 0-1.192-.218-1.568-.653-.375-.436-.563-1.043-.563-1.822 0-.78.188-1.386.563-1.822.376-.435.899-.653 1.568-.653.67 0 1.192.218 1.567.653.376.436.564 1.043.564 1.822 0 .78-.188 1.386-.564 1.822-.375.435-.898.653-1.567.653zm0-.715c.403 0 .704-.124.9-.371.198-.248.296-.569.296-.963v-.852c0-.394-.098-.715-.295-.963-.197-.247-.498-.371-.901-.371s-.704.124-.9.371c-.198.248-.296.569-.296.963v.852c0 .394.098.715.295.963.197.247.498.371.901.371zm7.397 5.61c-1.219 0-2.167-.415-2.846-1.244-.678-.83-1.017-2.051-1.017-3.665 0-1.613.339-2.853 1.017-3.72.679-.865 1.627-1.298 2.846-1.298.807 0 1.483.183 2.029.55.545.366.969.884 1.271 1.553l-.935.564a2.664 2.664 0 00-.88-1.19c-.394-.297-.889-.446-1.485-.446-.412 0-.781.078-1.106.234a2.28 2.28 0 00-.825.666 3.112 3.112 0 00-.516 1.032c-.12.398-.179.845-.179 1.34v1.43c0 .99.23 1.765.688 2.324.458.56 1.104.839 1.938.839.615 0 1.128-.158 1.54-.475.413-.316.715-.735.908-1.258l.921.578c-.302.678-.738 1.212-1.306 1.602-.568.39-1.256.584-2.063.584zm8.402-.165v-9.598h1.155v8.58h4.083v1.018h-5.238zm7.328-8.759c-.238 0-.41-.057-.515-.172a.634.634 0 01-.158-.447v-.178c0-.184.052-.333.158-.447.105-.115.277-.172.515-.172.239 0 .41.057.516.172a.634.634 0 01.158.447v.178a.634.634 0 01-.158.447c-.105.115-.277.172-.516.172zm-.55 1.664h1.1v7.095h-1.1V19.08zm3.438 7.095V19.08h1.1v1.155h.055c.083-.183.176-.355.282-.516.105-.16.234-.3.385-.419a1.77 1.77 0 01.53-.282c.2-.069.44-.103.714-.103.468 0 .899.112 1.293.337.394.224.687.593.88 1.107h.027c.129-.385.37-.722.722-1.01.353-.29.832-.434 1.437-.434.724 0 1.29.236 1.698.708.408.472.612 1.14.612 2v4.552h-1.1v-4.359c0-.632-.124-1.109-.371-1.43-.248-.32-.642-.481-1.183-.481-.22 0-.428.027-.625.082a1.704 1.704 0 00-.53.248c-.156.11-.28.25-.371.42a1.24 1.24 0 00-.138.597v4.923h-1.1v-4.359c0-.632-.123-1.109-.37-1.43-.248-.32-.633-.481-1.156-.481-.22 0-.43.027-.632.082-.202.056-.38.138-.537.248-.155.11-.281.25-.378.42-.096.169-.144.368-.144.597v4.923h-1.1zm12.554-8.759c-.239 0-.41-.057-.516-.172a.634.634 0 01-.158-.447v-.178c0-.184.053-.333.158-.447.106-.115.277-.172.516-.172.238 0 .41.057.515.172a.634.634 0 01.158.447v.178a.634.634 0 01-.158.447c-.105.115-.277.172-.515.172zm-.55 1.664h1.1v7.095h-1.1V19.08zm5.005 7.095c-.385 0-.676-.108-.873-.323-.197-.216-.296-.497-.296-.846v-4.964h-1.169v-.962h.66c.239 0 .401-.048.488-.144.087-.097.131-.264.131-.502v-1.32h.99v1.966h1.554v.962h-1.554v5.17h1.444v.963h-1.375zm5.871.165c-.486 0-.924-.087-1.313-.261a2.832 2.832 0 01-1.004-.75 3.439 3.439 0 01-.646-1.168 4.834 4.834 0 01-.227-1.534c0-.559.076-1.067.227-1.526a3.43 3.43 0 01.646-1.175c.28-.326.614-.576 1.004-.75.39-.174.827-.261 1.313-.261.477 0 .903.087 1.279.261.376.174.696.415.962.722s.47.672.612 1.093c.142.422.213.885.213 1.389v.522h-5.101v.33c0 .303.048.585.144.846.097.261.234.488.413.68.179.193.399.344.66.454.261.11.557.165.887.165.449 0 .84-.105 1.175-.316.335-.21.594-.513.777-.907l.784.563c-.23.486-.587.878-1.073 1.176-.485.298-1.063.447-1.732.447zm0-6.504c-.303 0-.577.053-.825.158-.248.106-.46.255-.64.447a2.1 2.1 0 00-.419.68c-.1.262-.151.549-.151.86v.096h3.919v-.15c0-.633-.172-1.14-.516-1.52-.344-.38-.8-.57-1.368-.57zm9.419 5.184h-.055c-.431.88-1.123 1.32-2.076 1.32-.44 0-.84-.087-1.197-.261a2.599 2.599 0 01-.914-.743 3.403 3.403 0 01-.578-1.169 5.524 5.524 0 01-.199-1.54c0-.568.066-1.081.2-1.54.132-.458.325-.847.577-1.168.252-.321.557-.569.914-.743a2.695 2.695 0 011.197-.261c.495 0 .918.108 1.271.323.353.216.621.548.805.997h.055V16h1.1v10.175h-1.1V25.02zm-1.829.33c.248 0 .484-.032.708-.096.225-.064.42-.158.585-.282.165-.124.295-.275.391-.454a1.27 1.27 0 00.145-.612v-2.64c0-.192-.048-.373-.145-.543a1.357 1.357 0 00-.391-.433 1.979 1.979 0 00-.585-.282 2.406 2.406 0 00-.708-.103c-.623 0-1.114.195-1.471.584-.358.39-.536.901-.536 1.534v1.21c0 .632.178 1.143.536 1.533.357.39.848.584 1.471.584zm12.004-8.938c.806 0 1.482.184 2.028.55.545.367.97.885 1.272 1.554l-.935.564a2.664 2.664 0 00-.88-1.19c-.394-.297-.89-.446-1.485-.446-.413 0-.782.078-1.107.233a2.28 2.28 0 00-.825.667 3.112 3.112 0 00-.516 1.032c-.119.398-.178.845-.178 1.34v1.43c0 .99.229 1.765.687 2.324.458.56 1.105.839 1.939.839.614 0 1.127-.158 1.54-.475.412-.316.715-.735.907-1.258l.922.578c-.303.678-.738 1.212-1.307 1.602-.568.39-1.256.584-2.062.584-1.22 0-2.168-.415-2.846-1.244-.679-.83-1.018-2.051-1.018-3.665 0-1.613.34-2.853 1.017-3.72.679-.865 1.628-1.298 2.847-1.298zm8.374.165c.595 0 1.136.101 1.622.303.486.202.9.502 1.244.9.344.4.608.899.791 1.5.183.6.275 1.299.275 2.096 0 .798-.092 1.497-.275 2.097-.183.6-.447 1.1-.79 1.499a3.283 3.283 0 01-1.245.9 4.194 4.194 0 01-1.623.303h-3.217v-9.598h3.218zm9.83 0c.844 0 1.502.234 1.974.702.472.467.708 1.141.708 2.021 0 .706-.163 1.286-.488 1.74-.326.453-.804.753-1.437.9l2.2 4.235h-1.306l-2.076-4.125H734.3v4.125h-1.155v-9.598h3.823zm-9.83 1.018h-2.063v7.562h2.063c.394 0 .756-.066 1.086-.199.33-.133.614-.328.852-.584.239-.257.424-.57.557-.942.133-.371.2-.795.2-1.272v-1.568c0-.476-.067-.9-.2-1.271a2.703 2.703 0 00-.557-.942 2.343 2.343 0 00-.852-.585c-.33-.133-.692-.199-1.087-.199zm9.83 0h-2.667v3.465h2.668c.458 0 .813-.12 1.065-.358s.378-.577.378-1.017v-.715c0-.44-.126-.78-.378-1.018s-.607-.357-1.065-.357z" fill="#C5A25B" fill-rule="nonzero"/><path stroke="#4E40B2" stroke-width="2" d="M13 21.5h43.5"/><path stroke="#E66B46" stroke-width="2" d="M175 21.5h43.5"/><path stroke="#C88673" stroke-width="2" d="M280 21.5h43.5"/><path stroke="#FFAC00" stroke-width="2" d="M463 21.5h43.5"/><path stroke="#C5A25B" stroke-width="2" d="M570 21.5h43.5"/></g></svg>
