<?xml version="1.0" encoding="UTF-8"?>
<svg width="65px" height="96px" viewBox="0 0 65 96" version="1.1" xmlns="http://www.w3.org/2000/svg" xmlns:xlink="http://www.w3.org/1999/xlink">
    <!-- Generator: Sketch 53.2 (72643) - https://sketchapp.com -->
    <title>Artboard Copy 14</title>
    <desc>Created with Sketch.</desc>
    <g id="Artboard-Copy-14" stroke="none" stroke-width="1" fill="none" fill-rule="evenodd">
        <g id="Group-3" transform="translate(3.000000, 15.000000)" stroke="#141416" stroke-width="3">
            <path d="M8.96574943,32.0775515 C15.3731396,31.6811806 25.7079135,31.0116281 39.9700711,30.068894 C45.1796265,30.1319787 49.3516653,25.9144017 49.2885805,20.648672 C49.2254958,15.3829424 44.9511764,11.0630848 39.741621,11 L3,12.5335764" id="Oval" transform="translate(26.144643, 21.538776) rotate(213.000000) translate(-26.144643, -21.538776) "></path>
            <path d="M34.4782618,50.8420806 C35.2913616,49.5787683 36.9274575,47.8507014 38.9171183,47.8139796 C40.2435588,47.7894984 42.7199781,47.7894984 46.3463761,47.8139796 L57.7091389,47.8139796 C60.2404917,47.8139796 62.2925586,46.0857452 62.2925586,43.95386 C62.2925586,41.8219749 60.2404917,40.0937405 57.7091389,40.0937405 C53.0860048,40.0279607 48.2432758,40.0279607 43.1809519,40.0937405 C35.587466,40.1924101 32.7154902,40.5641755 30.4709143,43.95386 C28.9745304,46.2136497 26.1117667,51.0260794 21.8826232,58.3911492" id="Oval-Copy" transform="translate(42.087591, 49.217777) rotate(90.000000) translate(-42.087591, -49.217777) "></path>
            <path d="M48.7656152,38.4063717 C50.6801254,36.5944916 51.8786722,34.002878 51.8786722,31.1250089 C51.8786722,25.646904 47.5358343,21.2060226 42.1786722,21.2060226 C36.8215101,21.2060226 32.4786722,25.646904 32.4786722,31.1250089 C32.4786722,34.5526592 34.1788955,37.5742361 36.7639832,39.3559729" id="Path"></path>
        </g>
    </g>
</svg>